<svg width="102" height="24" viewBox="0 0 102 24" fill="none" xmlns="http://www.w3.org/2000/svg">
<path d="M29.6435 21V2.09091H33.6413V10.4283H33.8906L40.6953 2.09091H45.4872L38.4702 10.5575L45.5703 21H40.7876L35.608 13.2259L33.6413 15.6264V21H29.6435ZM51.3574 21.277C49.8986 21.277 48.6429 20.9815 47.5904 20.3906C46.544 19.7936 45.7376 18.9503 45.1714 17.8608C44.6051 16.7652 44.3219 15.4695 44.3219 13.9737C44.3219 12.5149 44.6051 11.2346 45.1714 10.1328C45.7376 9.03101 46.5348 8.17235 47.5627 7.55682C48.5968 6.94129 49.8094 6.63352 51.2005 6.63352C52.1361 6.63352 53.0071 6.78433 53.8134 7.08594C54.6259 7.38139 55.3338 7.82765 55.937 8.42472C56.5464 9.02178 57.0203 9.77273 57.3589 10.6776C57.6974 11.5762 57.8667 12.6288 57.8667 13.8352V14.9155H45.8915V12.478H54.1643C54.1643 11.9117 54.0411 11.41 53.7949 10.973C53.5487 10.536 53.2071 10.1944 52.7701 9.94815C52.3392 9.69579 51.8376 9.5696 51.2651 9.5696C50.668 9.5696 50.1387 9.7081 49.677 9.98508C49.2215 10.2559 48.8645 10.6222 48.606 11.0838C48.3475 11.5393 48.2152 12.0471 48.209 12.6072V14.9247C48.209 15.6264 48.3383 16.2327 48.5968 16.7436C48.8615 17.2545 49.2339 17.6484 49.714 17.9254C50.1941 18.2024 50.7634 18.3409 51.4221 18.3409C51.8591 18.3409 52.2592 18.2794 52.6224 18.1562C52.9855 18.0331 53.2964 17.8485 53.5549 17.6023C53.8134 17.3561 54.0104 17.0545 54.1458 16.6974L57.7836 16.9375C57.5989 17.8116 57.2204 18.5748 56.6479 19.2273C56.0816 19.8736 55.3492 20.3783 54.4505 20.7415C53.558 21.0985 52.5269 21.277 51.3574 21.277ZM58.9473 21V2.09091H62.8805V9.20028H63.0006C63.1729 8.81865 63.4222 8.43087 63.7484 8.03693C64.0808 7.63684 64.5117 7.30445 65.041 7.03977C65.5766 6.76894 66.2413 6.63352 67.0354 6.63352C68.0695 6.63352 69.0235 6.90436 69.8976 7.44602C70.7716 7.98153 71.4703 8.79096 71.9935 9.87429C72.5167 10.9515 72.7783 12.3026 72.7783 13.9276C72.7783 15.5095 72.5228 16.8452 72.0119 17.9347C71.5072 19.018 70.8178 19.8397 69.9437 20.3999C69.0758 20.9538 68.1033 21.2308 67.0261 21.2308C66.2629 21.2308 65.6135 21.1046 65.078 20.8523C64.5486 20.5999 64.1147 20.2829 63.7761 19.9013C63.4376 19.5135 63.1791 19.1226 63.0006 18.7287H62.8251V21H58.9473ZM62.7974 13.9091C62.7974 14.7524 62.9144 15.4879 63.1483 16.1158C63.3822 16.7436 63.7207 17.233 64.1639 17.5838C64.6071 17.9285 65.1457 18.1009 65.7797 18.1009C66.4198 18.1009 66.9615 17.9254 67.4047 17.5746C67.8479 17.2176 68.1833 16.7251 68.4111 16.0973C68.645 15.4633 68.7619 14.7339 68.7619 13.9091C68.7619 13.0904 68.6481 12.3703 68.4203 11.7486C68.1926 11.1269 67.8571 10.6406 67.4139 10.2898C66.9707 9.93892 66.426 9.76349 65.7797 9.76349C65.1395 9.76349 64.5979 9.93276 64.1547 10.2713C63.7177 10.6098 63.3822 11.09 63.1483 11.7116C62.9144 12.3333 62.7974 13.0658 62.7974 13.9091ZM73.8427 21V6.81818H77.776V21H73.8427ZM75.8186 4.99006C75.2338 4.99006 74.7322 4.79616 74.3136 4.40838C73.9012 4.01444 73.695 3.54356 73.695 2.99574C73.695 2.45407 73.9012 1.98935 74.3136 1.60156C74.7322 1.20762 75.2338 1.01065 75.8186 1.01065C76.4033 1.01065 76.9019 1.20762 77.3143 1.60156C77.7329 1.98935 77.9422 2.45407 77.9422 2.99574C77.9422 3.54356 77.7329 4.01444 77.3143 4.40838C76.9019 4.79616 76.4033 4.99006 75.8186 4.99006ZM86.91 6.81818V9.77273H78.3696V6.81818H86.91ZM80.3085 3.42045H84.2417V16.642C84.2417 17.0052 84.2971 17.2884 84.4079 17.4915C84.5187 17.6884 84.6726 17.8269 84.8696 17.907C85.0727 17.987 85.3066 18.027 85.5713 18.027C85.7559 18.027 85.9406 18.0116 86.1252 17.9808C86.3099 17.9439 86.4515 17.9162 86.55 17.8977L87.1686 20.8246C86.9716 20.8861 86.6946 20.9569 86.3376 21.0369C85.9806 21.1231 85.5466 21.1754 85.0357 21.1939C84.0878 21.2308 83.2569 21.1046 82.5429 20.8153C81.835 20.526 81.2841 20.0767 80.8902 19.4673C80.4962 18.858 80.3023 18.0885 80.3085 17.1591V3.42045ZM94.2229 21.277C92.7641 21.277 91.5084 20.9815 90.4559 20.3906C89.4095 19.7936 88.6031 18.9503 88.0368 17.8608C87.4705 16.7652 87.1874 15.4695 87.1874 13.9737C87.1874 12.5149 87.4705 11.2346 88.0368 10.1328C88.6031 9.03101 89.4002 8.17235 90.4282 7.55682C91.4623 6.94129 92.6748 6.63352 94.0659 6.63352C95.0016 6.63352 95.8725 6.78433 96.6789 7.08594C97.4914 7.38139 98.1992 7.82765 98.8025 8.42472C99.4118 9.02178 99.8858 9.77273 100.224 10.6776C100.563 11.5762 100.732 12.6288 100.732 13.8352V14.9155H88.757V12.478H97.0297C97.0297 11.9117 96.9066 11.41 96.6604 10.973C96.4142 10.536 96.0726 10.1944 95.6355 9.94815C95.2047 9.69579 94.703 9.5696 94.1306 9.5696C93.5335 9.5696 93.0042 9.7081 92.5425 9.98508C92.087 10.2559 91.73 10.6222 91.4715 11.0838C91.213 11.5393 91.0806 12.0471 91.0745 12.6072V14.9247C91.0745 15.6264 91.2037 16.2327 91.4623 16.7436C91.7269 17.2545 92.0993 17.6484 92.5794 17.9254C93.0596 18.2024 93.6289 18.3409 94.2875 18.3409C94.7246 18.3409 95.1247 18.2794 95.4878 18.1562C95.851 18.0331 96.1618 17.8485 96.4203 17.6023C96.6789 17.3561 96.8758 17.0545 97.0113 16.6974L100.649 16.9375C100.464 17.8116 100.086 18.5748 99.5134 19.2273C98.9471 19.8736 98.2146 20.3783 97.3159 20.7415C96.4234 21.0985 95.3924 21.277 94.2229 21.277Z" fill="white"/>
<path d="M14.6667 7.28046V0H7.33334V7.28046H0V14.7195H7.33334V22H14.6667V14.7195H22V7.28046H14.6667ZM14.6667 14.5609H7.33334V7.4402H14.6667V14.5609Z" fill="white"/>
</svg>
